<svg width="48" height="48" viewBox="0 0 48 48" fill="none" xmlns="http://www.w3.org/2000/svg">
<path fill-rule="evenodd" clip-rule="evenodd" d="M24 45C35.598 45 45 35.598 45 24C45 12.402 35.598 3 24 3C12.402 3 3 12.402 3 24C3 35.598 12.402 45 24 45ZM48 24C48 37.2548 37.2548 48 24 48C10.7452 48 0 37.2548 0 24C0 10.7452 10.7452 0 24 0C37.2548 0 48 10.7452 48 24Z" fill="#1B344B"/>
<path d="M28.9537 27.376C28.2425 27.376 27.6364 27.8451 27.285 28.4634C26.5824 29.6997 25.4949 30.402 23.854 30.402C21.032 30.402 19.434 27.92 19.434 24.044C19.434 20.236 21.066 17.754 23.956 17.754C25.6839 17.754 26.7129 18.4888 27.2902 19.542C27.6814 20.2558 28.3439 20.848 29.1579 20.848V20.848C30.1795 20.848 30.986 19.953 30.5953 19.0091C29.7887 17.0605 27.8698 15 24.024 15C18.822 15 16 19.216 16 24.146C16 29.62 18.924 33.122 23.786 33.122C27.2955 33.122 29.2919 31.4677 30.3502 29.3558C30.8315 28.3953 30.028 27.376 28.9537 27.376V27.376Z" fill="#1B344B"/>
</svg>
